<svg height="496pt" viewBox="0 0 496 496" width="496pt" xmlns="http://www.w3.org/2000/svg"><path d="m408 424h-384v-240c0-8.839844 7.160156-16 16-16h352c8.839844 0 16 7.160156 16 16zm0 0" fill="#b3b3b3"/><path d="m56 200h320v192h-320zm0 0" fill="#67cbf5"/><path d="m56 200h296v192h-296zm0 0" fill="#99ddf8"/><path d="m488 192v-48h-34.328125c-3.320313-17.496094-10.144531-33.734375-19.808594-47.929688l24.242188-24.238281-33.945313-33.945312-24.238281 24.242187c-14.1875-9.65625-30.425781-16.480468-47.921875-19.800781v-34.328125h-48v34.328125c-17.496094 3.320313-33.734375 10.144531-47.929688 19.808594l-24.238281-24.242188-33.945312 33.945313 24.242187 24.238281c-9.65625 14.195313-16.480468 30.433594-19.808594 47.929687h-34.320312v48h34.328125c3.320313 17.496094 10.144531 33.734376 19.808594 47.929688l-24.242188 24.238281 33.945313 33.945313 24.238281-24.242188c14.195313 9.65625 30.433594 16.480469 47.929687 19.808594v34.3125h48v-34.328125c17.496094-3.320313 33.734376-10.144531 47.929688-19.808594l24.238281 24.242188 33.945313-33.945313-24.242188-24.238281c9.65625-14.195313 16.480469-30.433594 19.808594-47.929687h34.3125zm0 0" fill="#ffdf47"/><path d="m424 168c0 53.019531-42.980469 96-96 96s-96-42.980469-96-96 42.980469-96 96-96 96 42.980469 96 96zm0 0" fill="#ccc"/><path d="m400 168c0-52.558594-37.609375-95.167969-84-95.167969s-84 42.609375-84 95.167969 37.609375 95.167969 84 95.167969 84-42.609375 84-95.167969zm0 0" fill="#e6e6e6"/><path d="m344 120v47.144531l-16 16.664063-16-16.664063v-47.144531c-18.640625 6.863281-32 25.375-32 47.144531 0 21.75 13.367188 40.214844 32 47.078125v48.335938c5.214844.882812 10.535156 1.441406 16 1.441406s10.785156-.558594 16-1.441406v-48.335938c18.632812-6.871094 32-25.328125 32-47.078125 0-21.769531-13.359375-40.28125-32-47.144531zm0 0" fill="#01a9ee"/><path d="m392 488h-352c-17.671875 0-32-14.328125-32-32v-32h416v32c0 17.671875-14.328125 32-32 32zm0 0" fill="#4d4d4d"/><path d="m400 456v-32h-392v32c0 17.671875 14.328125 32 32 32h328c17.671875 0 32-14.328125 32-32zm0 0" fill="#666"/><path d="m120 424v16c0 8.839844 7.160156 16 16 16h160c8.839844 0 16-7.160156 16-16v-16zm0 0" fill="#c7cad3"/><path d="m352 264h-16v-49.777344c0-3.351562 2.089844-6.34375 5.230469-7.503906 16.007812-5.902344 26.769531-21.808594 26.769531-39.574219 0-13.441406-6.121094-25.808593-16-33.601562v33.601562c0 2.0625-.800781 4.046875-2.222656 5.542969l-16 16.664062c-3.035156 3.144532-8.511719 3.144532-11.546875 0l-16-16.664062c-1.429688-1.496094-2.230469-3.480469-2.230469-5.542969v-33.601562c-9.878906 7.792969-16 20.160156-16 33.601562 0 17.765625 10.761719 33.671875 26.769531 39.574219 3.140625 1.160156 5.230469 4.152344 5.230469 7.503906v49.777344h-16v-44.511719c-19.351562-9.511719-32-29.871093-32-52.34375 0-24.488281 14.960938-46.457031 37.230469-54.65625 2.464843-.894531 5.195312-.550781 7.34375.945313 2.144531 1.503906 3.425781 3.949218 3.425781 6.566406v43.929688l8 8.328124 8-8.328124v-43.929688c0-2.617188 1.28125-5.0625 3.425781-6.558594 2.140625-1.503906 4.878907-1.847656 7.34375-.945312 22.269531 8.191406 37.230469 30.160156 37.230469 54.648437 0 22.472657-12.648438 42.832031-32 52.34375zm0 0"/><path d="m352 336h-48c-4.425781 0-8-3.585938-8-8v-27.863281c-13.792969-3.3125-26.808594-8.679688-38.832031-16.039063l-19.671875 19.671875c-2.992188 2.992188-8.304688 3.007813-11.3125 0l-33.945313-33.945312c-1.503906-1.503907-2.34375-3.535157-2.34375-5.65625 0-2.121094.839844-4.160157 2.34375-5.65625l19.671875-19.671875c-7.351562-12.023438-12.734375-25.039063-16.039062-38.839844h-27.871094c-4.425781 0-8-3.585938-8-8v-48c0-4.414062 3.574219-8 8-8h27.863281c3.304688-13.800781 8.6875-26.816406 16.039063-38.839844l-19.671875-19.671875c-1.503907-1.503906-2.34375-3.535156-2.34375-5.65625 0-2.121093.839843-4.160156 2.34375-5.65625l33.945312-33.945312c1.503907-1.503907 3.527344-2.34375 5.65625-2.34375 2.128907 0 4.160157.839843 5.65625 2.34375l19.671875 19.671875c12.03125-7.359375 25.046875-12.734375 38.832032-16.039063v-27.863281c0-4.414062 3.574218-8 8-8h48c4.421874 0 8 3.585938 8 8v27.863281c13.792968 3.3125 26.808593 8.679688 38.832031 16.039063l19.671875-19.671875c2.992187-3 8.3125-3 11.3125 0l33.945312 33.945312c1.503906 1.503907 2.34375 3.535157 2.34375 5.65625 0 2.121094-.839844 4.160157-2.34375 5.65625l-19.675781 19.671875c7.355469 12.023438 12.738281 25.039063 16.042969 38.839844h27.878906c4.425781 0 8 3.585938 8 8v48c0 4.414062-3.574219 8-8 8h-27.863281c-3.304688 13.800781-8.6875 26.816406-16.039063 38.839844l19.671875 19.671875c1.503907 1.503906 2.34375 3.535156 2.34375 5.65625 0 2.121093-.839843 4.160156-2.34375 5.65625l-33.945312 33.945312c-1.503907 1.503907-3.527344 2.34375-5.65625 2.34375-2.128907 0-4.160157-.839843-5.65625-2.34375l-19.671875-19.671875c-12.03125 7.359375-25.046875 12.734375-38.832032 16.039063v27.863281c-.007812 4.414062-3.582031 8-8.007812 8zm-40-16h32v-26.328125c0-3.839844 2.734375-7.144531 6.503906-7.855469 16.238282-3.082031 31.351563-9.328125 44.921875-18.558594 3.167969-2.160156 7.4375-1.761718 10.160157.957032l18.574218 18.585937 22.632813-22.632812-18.585938-18.582031c-2.71875-2.714844-3.117187-6.984376-.949219-10.160157 9.222657-13.554687 15.46875-28.664062 18.550782-44.921875.71875-3.769531 4.023437-6.503906 7.863281-6.503906h26.328125v-32h-26.328125c-3.839844 0-7.144531-2.734375-7.855469-6.503906-3.089844-16.257813-9.328125-31.367188-18.550781-44.921875-2.167969-3.175781-1.769531-7.445313.949219-10.160157l18.585937-18.582031-22.632812-22.632812-18.574219 18.585937c-2.722656 2.726563-6.976562 3.117188-10.160156.957032-13.570313-9.230469-28.679688-15.476563-44.921875-18.558594-3.777344-.710938-6.511719-4.015625-6.511719-7.855469v-26.328125h-32v26.328125c0 3.839844-2.734375 7.144531-6.503906 7.855469-16.238282 3.082031-31.351563 9.328125-44.921875 18.558594-3.167969 2.160156-7.4375 1.761718-10.160157-.957032l-18.582031-18.585937-22.632812 22.632812 18.585937 18.582031c2.71875 2.714844 3.117188 6.984376.949219 10.160157-9.222656 13.554687-15.46875 28.664062-18.550781 44.921875-.710938 3.769531-4.015625 6.503906-7.855469 6.503906h-26.328125v32h26.328125c3.839844 0 7.144531 2.734375 7.855469 6.503906 3.089844 16.257813 9.328125 31.367188 18.550781 44.921875 2.167969 3.175781 1.769531 7.445313-.949219 10.160157l-18.585937 18.582031 22.632812 22.632812 18.574219-18.585937c2.730469-2.710938 6.992188-3.109375 10.160156-.957032 13.570313 9.230469 28.679688 15.476563 44.921875 18.558594 3.777344.710938 6.511719 4.015625 6.511719 7.855469zm0 0"/><path d="m328 272c-57.34375 0-104-46.65625-104-104s46.65625-104 104-104 104 46.65625 104 104-46.65625 104-104 104zm0-192c-48.519531 0-88 39.480469-88 88s39.480469 88 88 88 88-39.480469 88-88-39.480469-88-88-88zm0 0"/><path d="m392 496h-352c-22.054688 0-40-17.945312-40-40v-32c0-4.414062 3.574219-8 8-8h416c4.425781 0 8 3.585938 8 8v32c0 22.054688-17.945312 40-40 40zm-376-64v24c0 13.230469 10.769531 24 24 24h352c13.230469 0 24-10.769531 24-24v-24zm0 0"/><path d="m296 464h-160c-13.230469 0-24-10.769531-24-24v-16h16v16c0 4.40625 3.585938 8 8 8h160c4.414062 0 8-3.59375 8-8v-16h16v16c0 13.230469-10.769531 24-24 24zm0 0"/><path d="m32 424h-16v-240c0-13.230469 10.769531-24 24-24h128v16h-128c-4.414062 0-8 3.59375-8 8zm0 0"/><path d="m376 400h-320c-4.425781 0-8-3.585938-8-8v-192c0-4.414062 3.574219-8 8-8h88v16h-80v176h304v-32h16v40c0 4.414062-3.574219 8-8 8zm0 0"/><path d="m400 280h16v144h-16zm0 0"/></svg>